0
SECTION
2
HEADER
9
$INSUNITS
70
4
9
$MEASUREMENT
70
1
0
ENDSEC
0
SECTION
2
TABLES
0
TABLE
2
LTYPE
70
2
0
LTYPE
2
CONTINUOUS
70
0
3
Solid line
72
65
73
0
40
0.0
0
LTYPE
2
DASHED
70
0
3
Dashed __ __
72
65
73
2
40
9.0
49
6.0
49
-3.0
0
ENDTAB
0
TABLE
2
LAYER
70
5
0
LAYER
2
0
70
0
62
7
6
CONTINUOUS
0
LAYER
2
CUT
70
0
62
1
6
CONTINUOUS
0
LAYER
2
ENGRAVE
70
0
62
5
6
CONTINUOUS
0
LAYER
2
LABEL
70
0
62
3
6
CONTINUOUS
0
LAYER
2
SHEET
70
0
62
2
6
DASHED
0
ENDTAB
0
ENDSEC
0
SECTION
2
ENTITIES
0
LINE
8
SHEET
10
0.0000
20
0.0000
30
0.0
11
600.0000
21
0.0000
31
0.0
0
LINE
8
SHEET
10
600.0000
20
0.0000
30
0.0
11
600.0000
21
300.0000
31
0.0
0
LINE
8
SHEET
10
600.0000
20
300.0000
30
0.0
11
0.0000
21
300.0000
31
0.0
0
LINE
8
SHEET
10
0.0000
20
300.0000
30
0.0
11
0.0000
21
0.0000
31
0.0
0
LINE
8
CUT
10
25.0000
20
25.0000
30
0.0
11
205.0000
21
25.0000
31
0.0
0
LINE
8
CUT
10
205.0000
20
25.0000
30
0.0
11
205.0000
21
35.0000
31
0.0
0
LINE
8
CUT
10
205.0000
20
35.0000
30
0.0
11
25.0000
21
35.0000
31
0.0
0
LINE
8
CUT
10
25.0000
20
35.0000
30
0.0
11
25.0000
21
25.0000
31
0.0
0
TEXT
8
LABEL
10
27.0000
20
27.0000
30
0.0
40
4.0
1
SPACER x4 - 2 LAYERS PER SIDE = 5.4mm SLOT
0
LINE
8
CUT
10
25.0000
20
45.0000
30
0.0
11
205.0000
21
45.0000
31
0.0
0
LINE
8
CUT
10
205.0000
20
45.0000
30
0.0
11
205.0000
21
55.0000
31
0.0
0
LINE
8
CUT
10
205.0000
20
55.0000
30
0.0
11
25.0000
21
55.0000
31
0.0
0
LINE
8
CUT
10
25.0000
20
55.0000
30
0.0
11
25.0000
21
45.0000
31
0.0
0
TEXT
8
LABEL
10
27.0000
20
47.0000
30
0.0
40
4.0
1
SPACER x4 - 2 LAYERS PER SIDE = 5.4mm SLOT
0
LINE
8
CUT
10
25.0000
20
65.0000
30
0.0
11
205.0000
21
65.0000
31
0.0
0
LINE
8
CUT
10
205.0000
20
65.0000
30
0.0
11
205.0000
21
75.0000
31
0.0
0
LINE
8
CUT
10
205.0000
20
75.0000
30
0.0
11
25.0000
21
75.0000
31
0.0
0
LINE
8
CUT
10
25.0000
20
75.0000
30
0.0
11
25.0000
21
65.0000
31
0.0
0
TEXT
8
LABEL
10
27.0000
20
67.0000
30
0.0
40
4.0
1
SPACER x4 - 2 LAYERS PER SIDE = 5.4mm SLOT
0
LINE
8
CUT
10
25.0000
20
85.0000
30
0.0
11
205.0000
21
85.0000
31
0.0
0
LINE
8
CUT
10
205.0000
20
85.0000
30
0.0
11
205.0000
21
95.0000
31
0.0
0
LINE
8
CUT
10
205.0000
20
95.0000
30
0.0
11
25.0000
21
95.0000
31
0.0
0
LINE
8
CUT
10
25.0000
20
95.0000
30
0.0
11
25.0000
21
85.0000
31
0.0
0
TEXT
8
LABEL
10
27.0000
20
87.0000
30
0.0
40
4.0
1
SPACER x4 - 2 LAYERS PER SIDE = 5.4mm SLOT
0
LINE
8
CUT
10
245.0000
20
25.0000
30
0.0
11
425.0000
21
25.0000
31
0.0
0
LINE
8
CUT
10
425.0000
20
25.0000
30
0.0
11
425.0000
21
47.0000
31
0.0
0
LINE
8
CUT
10
425.0000
20
47.0000
30
0.0
11
245.0000
21
47.0000
31
0.0
0
LINE
8
CUT
10
245.0000
20
47.0000
30
0.0
11
245.0000
21
25.0000
31
0.0
0
TEXT
8
LABEL
10
247.0000
20
39.0000
30
0.0
40
4.0
1
COVER x2
0
LINE
8
CUT
10
245.0000
20
60.0000
30
0.0
11
425.0000
21
60.0000
31
0.0
0
LINE
8
CUT
10
425.0000
20
60.0000
30
0.0
11
425.0000
21
82.0000
31
0.0
0
LINE
8
CUT
10
425.0000
20
82.0000
30
0.0
11
245.0000
21
82.0000
31
0.0
0
LINE
8
CUT
10
245.0000
20
82.0000
30
0.0
11
245.0000
21
60.0000
31
0.0
0
TEXT
8
LABEL
10
247.0000
20
74.0000
30
0.0
40
4.0
1
COVER x2
0
LINE
8
CUT
10
25.0000
20
118.0000
30
0.0
11
115.0000
21
118.0000
31
0.0
0
LINE
8
CUT
10
115.0000
20
118.0000
30
0.0
11
25.0000
21
278.0000
31
0.0
0
LINE
8
CUT
10
25.0000
20
278.0000
30
0.0
11
25.0000
21
118.0000
31
0.0
0
LINE
8
CUT
10
39.0000
20
118.0000
30
0.0
11
39.0000
21
115.3000
31
0.0
0
LINE
8
CUT
10
39.0000
20
115.3000
30
0.0
11
51.0000
21
115.3000
31
0.0
0
LINE
8
CUT
10
51.0000
20
115.3000
30
0.0
11
51.0000
21
118.0000
31
0.0
0
LINE
8
CUT
10
77.0000
20
118.0000
30
0.0
11
77.0000
21
115.3000
31
0.0
0
LINE
8
CUT
10
77.0000
20
115.3000
30
0.0
11
89.0000
21
115.3000
31
0.0
0
LINE
8
CUT
10
89.0000
20
115.3000
30
0.0
11
89.0000
21
118.0000
31
0.0
0
LINE
8
CUT
10
25.0000
20
148.0000
30
0.0
11
22.3000
21
148.0000
31
0.0
0
LINE
8
CUT
10
22.3000
20
148.0000
30
0.0
11
22.3000
21
160.0000
31
0.0
0
LINE
8
CUT
10
22.3000
20
160.0000
30
0.0
11
25.0000
21
160.0000
31
0.0
0
LINE
8
CUT
10
25.0000
20
210.0000
30
0.0
11
22.3000
21
210.0000
31
0.0
0
LINE
8
CUT
10
22.3000
20
210.0000
30
0.0
11
22.3000
21
222.0000
31
0.0
0
LINE
8
CUT
10
22.3000
20
222.0000
30
0.0
11
25.0000
21
222.0000
31
0.0
0
TEXT
8
LABEL
10
39.0000
20
130.0000
30
0.0
40
4.0
1
BRACE x2 T2.7
0
LINE
8
CUT
10
143.0000
20
118.0000
30
0.0
11
233.0000
21
118.0000
31
0.0
0
LINE
8
CUT
10
233.0000
20
118.0000
30
0.0
11
143.0000
21
278.0000
31
0.0
0
LINE
8
CUT
10
143.0000
20
278.0000
30
0.0
11
143.0000
21
118.0000
31
0.0
0
LINE
8
CUT
10
157.0000
20
118.0000
30
0.0
11
157.0000
21
115.3000
31
0.0
0
LINE
8
CUT
10
157.0000
20
115.3000
30
0.0
11
169.0000
21
115.3000
31
0.0
0
LINE
8
CUT
10
169.0000
20
115.3000
30
0.0
11
169.0000
21
118.0000
31
0.0
0
LINE
8
CUT
10
195.0000
20
118.0000
30
0.0
11
195.0000
21
115.3000
31
0.0
0
LINE
8
CUT
10
195.0000
20
115.3000
30
0.0
11
207.0000
21
115.3000
31
0.0
0
LINE
8
CUT
10
207.0000
20
115.3000
30
0.0
11
207.0000
21
118.0000
31
0.0
0
LINE
8
CUT
10
143.0000
20
148.0000
30
0.0
11
140.3000
21
148.0000
31
0.0
0
LINE
8
CUT
10
140.3000
20
148.0000
30
0.0
11
140.3000
21
160.0000
31
0.0
0
LINE
8
CUT
10
140.3000
20
160.0000
30
0.0
11
143.0000
21
160.0000
31
0.0
0
LINE
8
CUT
10
143.0000
20
210.0000
30
0.0
11
140.3000
21
210.0000
31
0.0
0
LINE
8
CUT
10
140.3000
20
210.0000
30
0.0
11
140.3000
21
222.0000
31
0.0
0
LINE
8
CUT
10
140.3000
20
222.0000
30
0.0
11
143.0000
21
222.0000
31
0.0
0
TEXT
8
LABEL
10
157.0000
20
130.0000
30
0.0
40
4.0
1
BRACE x2 T2.7
0
LINE
8
CUT
10
250.0000
20
90.0000
30
0.0
11
450.0000
21
90.0000
31
0.0
0
LINE
8
CUT
10
450.0000
20
90.0000
30
0.0
11
450.0000
21
290.0000
31
0.0
0
LINE
8
CUT
10
450.0000
20
290.0000
30
0.0
11
250.0000
21
290.0000
31
0.0
0
LINE
8
CUT
10
250.0000
20
290.0000
30
0.0
11
250.0000
21
90.0000
31
0.0
0
LINE
8
CUT
10
280.0000
20
158.6500
30
0.0
11
300.0000
21
158.6500
31
0.0
0
LINE
8
CUT
10
300.0000
20
158.6500
30
0.0
11
300.0000
21
161.3500
31
0.0
0
LINE
8
CUT
10
300.0000
20
161.3500
30
0.0
11
280.0000
21
161.3500
31
0.0
0
LINE
8
CUT
10
280.0000
20
161.3500
30
0.0
11
280.0000
21
158.6500
31
0.0
0
LINE
8
CUT
10
340.0000
20
158.6500
30
0.0
11
360.0000
21
158.6500
31
0.0
0
LINE
8
CUT
10
360.0000
20
158.6500
30
0.0
11
360.0000
21
161.3500
31
0.0
0
LINE
8
CUT
10
360.0000
20
161.3500
30
0.0
11
340.0000
21
161.3500
31
0.0
0
LINE
8
CUT
10
340.0000
20
161.3500
30
0.0
11
340.0000
21
158.6500
31
0.0
0
LINE
8
CUT
10
400.0000
20
158.6500
30
0.0
11
420.0000
21
158.6500
31
0.0
0
LINE
8
CUT
10
420.0000
20
158.6500
30
0.0
11
420.0000
21
161.3500
31
0.0
0
LINE
8
CUT
10
420.0000
20
161.3500
30
0.0
11
400.0000
21
161.3500
31
0.0
0
LINE
8
CUT
10
400.0000
20
161.3500
30
0.0
11
400.0000
21
158.6500
31
0.0
0
LINE
8
CUT
10
260.6500
20
174.0000
30
0.0
11
263.3500
21
174.0000
31
0.0
0
LINE
8
CUT
10
263.3500
20
174.0000
30
0.0
11
263.3500
21
186.0000
31
0.0
0
LINE
8
CUT
10
263.3500
20
186.0000
30
0.0
11
260.6500
21
186.0000
31
0.0
0
LINE
8
CUT
10
260.6500
20
186.0000
30
0.0
11
260.6500
21
174.0000
31
0.0
0
LINE
8
CUT
10
260.6500
20
212.0000
30
0.0
11
263.3500
21
212.0000
31
0.0
0
LINE
8
CUT
10
263.3500
20
212.0000
30
0.0
11
263.3500
21
224.0000
31
0.0
0
LINE
8
CUT
10
263.3500
20
224.0000
30
0.0
11
260.6500
21
224.0000
31
0.0
0
LINE
8
CUT
10
260.6500
20
224.0000
30
0.0
11
260.6500
21
212.0000
31
0.0
0
LINE
8
CUT
10
433.6500
20
174.0000
30
0.0
11
436.3500
21
174.0000
31
0.0
0
LINE
8
CUT
10
436.3500
20
174.0000
30
0.0
11
436.3500
21
186.0000
31
0.0
0
LINE
8
CUT
10
436.3500
20
186.0000
30
0.0
11
433.6500
21
186.0000
31
0.0
0
LINE
8
CUT
10
433.6500
20
186.0000
30
0.0
11
433.6500
21
174.0000
31
0.0
0
LINE
8
CUT
10
433.6500
20
212.0000
30
0.0
11
436.3500
21
212.0000
31
0.0
0
LINE
8
CUT
10
436.3500
20
212.0000
30
0.0
11
436.3500
21
224.0000
31
0.0
0
LINE
8
CUT
10
436.3500
20
224.0000
30
0.0
11
433.6500
21
224.0000
31
0.0
0
LINE
8
CUT
10
433.6500
20
224.0000
30
0.0
11
433.6500
21
212.0000
31
0.0
0
LINE
8
ENGRAVE
10
254.0000
20
94.0000
30
0.0
11
262.0000
21
94.0000
31
0.0
0
LINE
8
ENGRAVE
10
254.0000
20
94.0000
30
0.0
11
254.0000
21
102.0000
31
0.0
0
LINE
8
ENGRAVE
10
294.0000
20
94.0000
30
0.0
11
286.0000
21
94.0000
31
0.0
0
LINE
8
ENGRAVE
10
294.0000
20
94.0000
30
0.0
11
294.0000
21
102.0000
31
0.0
0
LINE
8
ENGRAVE
10
294.0000
20
154.0000
30
0.0
11
286.0000
21
154.0000
31
0.0
0
LINE
8
ENGRAVE
10
294.0000
20
154.0000
30
0.0
11
294.0000
21
146.0000
31
0.0
0
LINE
8
ENGRAVE
10
254.0000
20
154.0000
30
0.0
11
262.0000
21
154.0000
31
0.0
0
LINE
8
ENGRAVE
10
254.0000
20
154.0000
30
0.0
11
254.0000
21
146.0000
31
0.0
0
LINE
8
ENGRAVE
10
406.0000
20
94.0000
30
0.0
11
414.0000
21
94.0000
31
0.0
0
LINE
8
ENGRAVE
10
406.0000
20
94.0000
30
0.0
11
406.0000
21
102.0000
31
0.0
0
LINE
8
ENGRAVE
10
446.0000
20
94.0000
30
0.0
11
438.0000
21
94.0000
31
0.0
0
LINE
8
ENGRAVE
10
446.0000
20
94.0000
30
0.0
11
446.0000
21
102.0000
31
0.0
0
LINE
8
ENGRAVE
10
446.0000
20
154.0000
30
0.0
11
438.0000
21
154.0000
31
0.0
0
LINE
8
ENGRAVE
10
446.0000
20
154.0000
30
0.0
11
446.0000
21
146.0000
31
0.0
0
LINE
8
ENGRAVE
10
406.0000
20
154.0000
30
0.0
11
414.0000
21
154.0000
31
0.0
0
LINE
8
ENGRAVE
10
406.0000
20
154.0000
30
0.0
11
406.0000
21
146.0000
31
0.0
0
TEXT
8
LABEL
10
258.0000
20
120.0000
30
0.0
40
4.0
1
CLAMP
0
TEXT
8
LABEL
10
410.0000
20
120.0000
30
0.0
40
4.0
1
CLAMP
0
TEXT
8
LABEL
10
256.0000
20
278.0000
30
0.0
40
4.0
1
BASE 200x200 T2.7 x2  GLUE 2 LAYERS = 5.4mm
0
LINE
8
CUT
10
478.0000
20
112.0000
30
0.0
11
568.0000
21
112.0000
31
0.0
0
LINE
8
CUT
10
568.0000
20
112.0000
30
0.0
11
568.0000
21
197.0000
31
0.0
0
LINE
8
CUT
10
568.0000
20
197.0000
30
0.0
11
478.0000
21
197.0000
31
0.0
0
LINE
8
CUT
10
478.0000
20
197.0000
30
0.0
11
478.0000
21
112.0000
31
0.0
0
CIRCLE
8
CUT
10
523.0000
20
190.0000
30
0.0
40
1.5000
0
LINE
8
ENGRAVE
10
492.0000
20
118.0000
30
0.0
11
497.0000
21
118.0000
31
0.0
0
LINE
8
ENGRAVE
10
492.0000
20
118.0000
30
0.0
11
492.0000
21
123.0000
31
0.0
0
LINE
8
ENGRAVE
10
554.0000
20
118.0000
30
0.0
11
549.0000
21
118.0000
31
0.0
0
LINE
8
ENGRAVE
10
554.0000
20
118.0000
30
0.0
11
554.0000
21
123.0000
31
0.0
0
LINE
8
ENGRAVE
10
554.0000
20
131.0000
30
0.0
11
549.0000
21
131.0000
31
0.0
0
LINE
8
ENGRAVE
10
554.0000
20
131.0000
30
0.0
11
554.0000
21
126.0000
31
0.0
0
LINE
8
ENGRAVE
10
492.0000
20
131.0000
30
0.0
11
497.0000
21
131.0000
31
0.0
0
LINE
8
ENGRAVE
10
492.0000
20
131.0000
30
0.0
11
492.0000
21
126.0000
31
0.0
0
TEXT
8
LABEL
10
496.0000
20
136.0000
30
0.0
40
4.0
1
M8 NUT x3
0
TEXT
8
LABEL
10
482.0000
20
177.0000
30
0.0
40
4.0
1
FLAP 90x85 T2.7
0
LINE
8
CUT
10
478.0000
20
205.0000
30
0.0
11
568.0000
21
205.0000
31
0.0
0
LINE
8
CUT
10
568.0000
20
205.0000
30
0.0
11
568.0000
21
290.0000
31
0.0
0
LINE
8
CUT
10
568.0000
20
290.0000
30
0.0
11
478.0000
21
290.0000
31
0.0
0
LINE
8
CUT
10
478.0000
20
290.0000
30
0.0
11
478.0000
21
205.0000
31
0.0
0
CIRCLE
8
CUT
10
523.0000
20
283.0000
30
0.0
40
1.5000
0
LINE
8
ENGRAVE
10
492.0000
20
211.0000
30
0.0
11
497.0000
21
211.0000
31
0.0
0
LINE
8
ENGRAVE
10
492.0000
20
211.0000
30
0.0
11
492.0000
21
216.0000
31
0.0
0
LINE
8
ENGRAVE
10
554.0000
20
211.0000
30
0.0
11
549.0000
21
211.0000
31
0.0
0
LINE
8
ENGRAVE
10
554.0000
20
211.0000
30
0.0
11
554.0000
21
216.0000
31
0.0
0
LINE
8
ENGRAVE
10
554.0000
20
224.0000
30
0.0
11
549.0000
21
224.0000
31
0.0
0
LINE
8
ENGRAVE
10
554.0000
20
224.0000
30
0.0
11
554.0000
21
219.0000
31
0.0
0
LINE
8
ENGRAVE
10
492.0000
20
224.0000
30
0.0
11
497.0000
21
224.0000
31
0.0
0
LINE
8
ENGRAVE
10
492.0000
20
224.0000
30
0.0
11
492.0000
21
219.0000
31
0.0
0
TEXT
8
LABEL
10
496.0000
20
229.0000
30
0.0
40
4.0
1
M8 NUT x3
0
TEXT
8
LABEL
10
482.0000
20
270.0000
30
0.0
40
4.0
1
FLAP 90x85 T2.7
0
LINE
8
CUT
10
470.0000
20
25.0000
30
0.0
11
586.0000
21
25.0000
31
0.0
0
LINE
8
CUT
10
586.0000
20
25.0000
30
0.0
11
586.0000
21
45.0000
31
0.0
0
LINE
8
CUT
10
586.0000
20
45.0000
30
0.0
11
470.0000
21
45.0000
31
0.0
0
LINE
8
CUT
10
470.0000
20
45.0000
30
0.0
11
470.0000
21
25.0000
31
0.0
0
LINE
8
CUT
10
478.0000
20
25.0000
30
0.0
11
478.0000
21
22.3000
31
0.0
0
LINE
8
CUT
10
478.0000
20
22.3000
30
0.0
11
490.0000
21
22.3000
31
0.0
0
LINE
8
CUT
10
490.0000
20
22.3000
30
0.0
11
490.0000
21
25.0000
31
0.0
0
LINE
8
CUT
10
566.0000
20
25.0000
30
0.0
11
566.0000
21
22.3000
31
0.0
0
LINE
8
CUT
10
566.0000
20
22.3000
30
0.0
11
578.0000
21
22.3000
31
0.0
0
LINE
8
CUT
10
578.0000
20
22.3000
30
0.0
11
578.0000
21
25.0000
31
0.0
0
TEXT
8
LABEL
10
473.0000
20
32.0000
30
0.0
40
4.0
1
LED HOOD T2.7
0
LINE
8
CUT
10
470.0000
20
62.0000
30
0.0
11
560.0000
21
62.0000
31
0.0
0
LINE
8
CUT
10
560.0000
20
62.0000
30
0.0
11
560.0000
21
70.0000
31
0.0
0
LINE
8
CUT
10
560.0000
20
70.0000
30
0.0
11
470.0000
21
70.0000
31
0.0
0
LINE
8
CUT
10
470.0000
20
70.0000
30
0.0
11
470.0000
21
62.0000
31
0.0
0
TEXT
8
LABEL
10
472.0000
20
64.0000
30
0.0
40
4.0
1
STOPPER
0
TEXT
8
LABEL
10
6.0000
20
290.0000
30
0.0
40
4.0
1
SHEET B  600x300  MDF T2.7   HOOD/STOPPER = SPARE
0
ENDSEC
0
EOF
