0
SECTION
2
HEADER
9
$INSUNITS
70
4
9
$MEASUREMENT
70
1
0
ENDSEC
0
SECTION
2
TABLES
0
TABLE
2
LTYPE
70
2
0
LTYPE
2
CONTINUOUS
70
0
3
Solid line
72
65
73
0
40
0.0
0
LTYPE
2
DASHED
70
0
3
Dashed __ __
72
65
73
2
40
9.0
49
6.0
49
-3.0
0
ENDTAB
0
TABLE
2
LAYER
70
5
0
LAYER
2
0
70
0
62
7
6
CONTINUOUS
0
LAYER
2
CUT
70
0
62
1
6
CONTINUOUS
0
LAYER
2
ENGRAVE
70
0
62
5
6
CONTINUOUS
0
LAYER
2
LABEL
70
0
62
3
6
CONTINUOUS
0
LAYER
2
SHEET
70
0
62
2
6
DASHED
0
ENDTAB
0
ENDSEC
0
SECTION
2
ENTITIES
0
LINE
8
SHEET
10
0.0000
20
0.0000
30
0.0
11
600.0000
21
0.0000
31
0.0
0
LINE
8
SHEET
10
600.0000
20
0.0000
30
0.0
11
600.0000
21
300.0000
31
0.0
0
LINE
8
SHEET
10
600.0000
20
300.0000
30
0.0
11
0.0000
21
300.0000
31
0.0
0
LINE
8
SHEET
10
0.0000
20
300.0000
30
0.0
11
0.0000
21
0.0000
31
0.0
0
LINE
8
CUT
10
20.0000
20
22.0000
30
0.0
11
50.0000
21
22.0000
31
0.0
0
LINE
8
CUT
10
50.0000
20
22.0000
30
0.0
11
50.0000
21
19.3000
31
0.0
0
LINE
8
CUT
10
50.0000
20
19.3000
30
0.0
11
70.0000
21
19.3000
31
0.0
0
LINE
8
CUT
10
70.0000
20
19.3000
30
0.0
11
70.0000
21
22.0000
31
0.0
0
LINE
8
CUT
10
70.0000
20
22.0000
30
0.0
11
110.0000
21
22.0000
31
0.0
0
LINE
8
CUT
10
110.0000
20
22.0000
30
0.0
11
110.0000
21
19.3000
31
0.0
0
LINE
8
CUT
10
110.0000
20
19.3000
30
0.0
11
130.0000
21
19.3000
31
0.0
0
LINE
8
CUT
10
130.0000
20
19.3000
30
0.0
11
130.0000
21
22.0000
31
0.0
0
LINE
8
CUT
10
130.0000
20
22.0000
30
0.0
11
170.0000
21
22.0000
31
0.0
0
LINE
8
CUT
10
170.0000
20
22.0000
30
0.0
11
170.0000
21
19.3000
31
0.0
0
LINE
8
CUT
10
170.0000
20
19.3000
30
0.0
11
190.0000
21
19.3000
31
0.0
0
LINE
8
CUT
10
190.0000
20
19.3000
30
0.0
11
190.0000
21
22.0000
31
0.0
0
LINE
8
CUT
10
190.0000
20
22.0000
30
0.0
11
220.0000
21
22.0000
31
0.0
0
LINE
8
CUT
10
220.0000
20
22.0000
30
0.0
11
220.0000
21
282.0000
31
0.0
0
LINE
8
CUT
10
220.0000
20
282.0000
30
0.0
11
20.0000
21
282.0000
31
0.0
0
LINE
8
CUT
10
20.0000
20
282.0000
30
0.0
11
20.0000
21
22.0000
31
0.0
0
LINE
8
CUT
10
85.0000
20
42.0000
30
0.0
11
155.0000
21
42.0000
31
0.0
0
LINE
8
CUT
10
155.0000
20
42.0000
30
0.0
11
155.0000
21
112.0000
31
0.0
0
LINE
8
CUT
10
155.0000
20
112.0000
30
0.0
11
85.0000
21
112.0000
31
0.0
0
LINE
8
CUT
10
85.0000
20
112.0000
30
0.0
11
85.0000
21
42.0000
31
0.0
0
LINE
8
CUT
10
30.6500
20
52.0000
30
0.0
11
33.3500
21
52.0000
31
0.0
0
LINE
8
CUT
10
33.3500
20
52.0000
30
0.0
11
33.3500
21
64.0000
31
0.0
0
LINE
8
CUT
10
33.3500
20
64.0000
30
0.0
11
30.6500
21
64.0000
31
0.0
0
LINE
8
CUT
10
30.6500
20
64.0000
30
0.0
11
30.6500
21
52.0000
31
0.0
0
LINE
8
CUT
10
30.6500
20
114.0000
30
0.0
11
33.3500
21
114.0000
31
0.0
0
LINE
8
CUT
10
33.3500
20
114.0000
30
0.0
11
33.3500
21
126.0000
31
0.0
0
LINE
8
CUT
10
33.3500
20
126.0000
30
0.0
11
30.6500
21
126.0000
31
0.0
0
LINE
8
CUT
10
30.6500
20
126.0000
30
0.0
11
30.6500
21
114.0000
31
0.0
0
LINE
8
CUT
10
203.6500
20
52.0000
30
0.0
11
206.3500
21
52.0000
31
0.0
0
LINE
8
CUT
10
206.3500
20
52.0000
30
0.0
11
206.3500
21
64.0000
31
0.0
0
LINE
8
CUT
10
206.3500
20
64.0000
30
0.0
11
203.6500
21
64.0000
31
0.0
0
LINE
8
CUT
10
203.6500
20
64.0000
30
0.0
11
203.6500
21
52.0000
31
0.0
0
LINE
8
CUT
10
203.6500
20
114.0000
30
0.0
11
206.3500
21
114.0000
31
0.0
0
LINE
8
CUT
10
206.3500
20
114.0000
30
0.0
11
206.3500
21
126.0000
31
0.0
0
LINE
8
CUT
10
206.3500
20
126.0000
30
0.0
11
203.6500
21
126.0000
31
0.0
0
LINE
8
CUT
10
203.6500
20
126.0000
30
0.0
11
203.6500
21
114.0000
31
0.0
0
LINE
8
CUT
10
98.1500
20
198.0000
30
0.0
11
100.8500
21
198.0000
31
0.0
0
LINE
8
CUT
10
100.8500
20
198.0000
30
0.0
11
100.8500
21
210.0000
31
0.0
0
LINE
8
CUT
10
100.8500
20
210.0000
30
0.0
11
98.1500
21
210.0000
31
0.0
0
LINE
8
CUT
10
98.1500
20
210.0000
30
0.0
11
98.1500
21
198.0000
31
0.0
0
LINE
8
CUT
10
98.1500
20
230.0000
30
0.0
11
100.8500
21
230.0000
31
0.0
0
LINE
8
CUT
10
100.8500
20
230.0000
30
0.0
11
100.8500
21
242.0000
31
0.0
0
LINE
8
CUT
10
100.8500
20
242.0000
30
0.0
11
98.1500
21
242.0000
31
0.0
0
LINE
8
CUT
10
98.1500
20
242.0000
30
0.0
11
98.1500
21
230.0000
31
0.0
0
LINE
8
CUT
10
139.1500
20
198.0000
30
0.0
11
141.8500
21
198.0000
31
0.0
0
LINE
8
CUT
10
141.8500
20
198.0000
30
0.0
11
141.8500
21
210.0000
31
0.0
0
LINE
8
CUT
10
141.8500
20
210.0000
30
0.0
11
139.1500
21
210.0000
31
0.0
0
LINE
8
CUT
10
139.1500
20
210.0000
30
0.0
11
139.1500
21
198.0000
31
0.0
0
LINE
8
CUT
10
139.1500
20
230.0000
30
0.0
11
141.8500
21
230.0000
31
0.0
0
LINE
8
CUT
10
141.8500
20
230.0000
30
0.0
11
141.8500
21
242.0000
31
0.0
0
LINE
8
CUT
10
141.8500
20
242.0000
30
0.0
11
139.1500
21
242.0000
31
0.0
0
LINE
8
CUT
10
139.1500
20
242.0000
30
0.0
11
139.1500
21
230.0000
31
0.0
0
CIRCLE
8
CUT
10
120.0000
20
174.0000
30
0.0
40
3.0000
0
CIRCLE
8
CUT
10
120.0000
20
123.0000
30
0.0
40
3.0000
0
CIRCLE
8
CUT
10
42.0000
20
36.0000
30
0.0
40
3.7500
0
CIRCLE
8
CUT
10
179.5000
20
150.0000
30
0.0
40
8.2500
0
CIRCLE
8
CUT
10
205.5000
20
150.0000
30
0.0
40
8.2500
0
LINE
8
CUT
10
187.8000
20
165.7000
30
0.0
11
197.2000
21
165.7000
31
0.0
0
LINE
8
CUT
10
187.8000
20
168.3000
30
0.0
11
197.2000
21
168.3000
31
0.0
0
ARC
8
CUT
10
197.2000
20
167.0000
30
0.0
40
1.3000
50
-90.0000
51
90.0000
0
ARC
8
CUT
10
187.8000
20
167.0000
30
0.0
40
1.3000
50
90.0000
51
270.0000
0
LINE
8
CUT
10
187.8000
20
131.7000
30
0.0
11
197.2000
21
131.7000
31
0.0
0
LINE
8
CUT
10
187.8000
20
134.3000
30
0.0
11
197.2000
21
134.3000
31
0.0
0
ARC
8
CUT
10
197.2000
20
133.0000
30
0.0
40
1.3000
50
-90.0000
51
90.0000
0
ARC
8
CUT
10
187.8000
20
133.0000
30
0.0
40
1.3000
50
90.0000
51
270.0000
0
CIRCLE
8
CUT
10
85.0000
20
57.0000
30
0.0
40
2.7500
0
CIRCLE
8
CUT
10
155.0000
20
57.0000
30
0.0
40
2.7500
0
LINE
8
ENGRAVE
10
65.0000
20
32.0000
30
0.0
11
73.0000
21
32.0000
31
0.0
0
LINE
8
ENGRAVE
10
65.0000
20
32.0000
30
0.0
11
65.0000
21
40.0000
31
0.0
0
LINE
8
ENGRAVE
10
75.0000
20
32.0000
30
0.0
11
67.0000
21
32.0000
31
0.0
0
LINE
8
ENGRAVE
10
75.0000
20
32.0000
30
0.0
11
75.0000
21
40.0000
31
0.0
0
LINE
8
ENGRAVE
10
75.0000
20
212.0000
30
0.0
11
67.0000
21
212.0000
31
0.0
0
LINE
8
ENGRAVE
10
75.0000
20
212.0000
30
0.0
11
75.0000
21
204.0000
31
0.0
0
LINE
8
ENGRAVE
10
65.0000
20
212.0000
30
0.0
11
73.0000
21
212.0000
31
0.0
0
LINE
8
ENGRAVE
10
65.0000
20
212.0000
30
0.0
11
65.0000
21
204.0000
31
0.0
0
LINE
8
ENGRAVE
10
165.0000
20
32.0000
30
0.0
11
173.0000
21
32.0000
31
0.0
0
LINE
8
ENGRAVE
10
165.0000
20
32.0000
30
0.0
11
165.0000
21
40.0000
31
0.0
0
LINE
8
ENGRAVE
10
175.0000
20
32.0000
30
0.0
11
167.0000
21
32.0000
31
0.0
0
LINE
8
ENGRAVE
10
175.0000
20
32.0000
30
0.0
11
175.0000
21
40.0000
31
0.0
0
LINE
8
ENGRAVE
10
175.0000
20
212.0000
30
0.0
11
167.0000
21
212.0000
31
0.0
0
LINE
8
ENGRAVE
10
175.0000
20
212.0000
30
0.0
11
175.0000
21
204.0000
31
0.0
0
LINE
8
ENGRAVE
10
165.0000
20
212.0000
30
0.0
11
173.0000
21
212.0000
31
0.0
0
LINE
8
ENGRAVE
10
165.0000
20
212.0000
30
0.0
11
165.0000
21
204.0000
31
0.0
0
LINE
8
ENGRAVE
10
65.0000
20
32.0000
30
0.0
11
73.0000
21
32.0000
31
0.0
0
LINE
8
ENGRAVE
10
65.0000
20
32.0000
30
0.0
11
65.0000
21
40.0000
31
0.0
0
LINE
8
ENGRAVE
10
87.0000
20
32.0000
30
0.0
11
79.0000
21
32.0000
31
0.0
0
LINE
8
ENGRAVE
10
87.0000
20
32.0000
30
0.0
11
87.0000
21
40.0000
31
0.0
0
LINE
8
ENGRAVE
10
87.0000
20
212.0000
30
0.0
11
79.0000
21
212.0000
31
0.0
0
LINE
8
ENGRAVE
10
87.0000
20
212.0000
30
0.0
11
87.0000
21
204.0000
31
0.0
0
LINE
8
ENGRAVE
10
65.0000
20
212.0000
30
0.0
11
73.0000
21
212.0000
31
0.0
0
LINE
8
ENGRAVE
10
65.0000
20
212.0000
30
0.0
11
65.0000
21
204.0000
31
0.0
0
LINE
8
ENGRAVE
10
153.0000
20
32.0000
30
0.0
11
161.0000
21
32.0000
31
0.0
0
LINE
8
ENGRAVE
10
153.0000
20
32.0000
30
0.0
11
153.0000
21
40.0000
31
0.0
0
LINE
8
ENGRAVE
10
175.0000
20
32.0000
30
0.0
11
167.0000
21
32.0000
31
0.0
0
LINE
8
ENGRAVE
10
175.0000
20
32.0000
30
0.0
11
175.0000
21
40.0000
31
0.0
0
LINE
8
ENGRAVE
10
175.0000
20
212.0000
30
0.0
11
167.0000
21
212.0000
31
0.0
0
LINE
8
ENGRAVE
10
175.0000
20
212.0000
30
0.0
11
175.0000
21
204.0000
31
0.0
0
LINE
8
ENGRAVE
10
153.0000
20
212.0000
30
0.0
11
161.0000
21
212.0000
31
0.0
0
LINE
8
ENGRAVE
10
153.0000
20
212.0000
30
0.0
11
153.0000
21
204.0000
31
0.0
0
LINE
8
ENGRAVE
10
75.0000
20
24.0000
30
0.0
11
80.0000
21
24.0000
31
0.0
0
LINE
8
ENGRAVE
10
75.0000
20
24.0000
30
0.0
11
75.0000
21
29.0000
31
0.0
0
LINE
8
ENGRAVE
10
165.0000
20
24.0000
30
0.0
11
160.0000
21
24.0000
31
0.0
0
LINE
8
ENGRAVE
10
165.0000
20
24.0000
30
0.0
11
165.0000
21
29.0000
31
0.0
0
LINE
8
ENGRAVE
10
165.0000
20
32.0000
30
0.0
11
160.0000
21
32.0000
31
0.0
0
LINE
8
ENGRAVE
10
165.0000
20
32.0000
30
0.0
11
165.0000
21
27.0000
31
0.0
0
LINE
8
ENGRAVE
10
75.0000
20
32.0000
30
0.0
11
80.0000
21
32.0000
31
0.0
0
LINE
8
ENGRAVE
10
75.0000
20
32.0000
30
0.0
11
75.0000
21
27.0000
31
0.0
0
LINE
8
ENGRAVE
10
90.0000
20
192.0000
30
0.0
11
98.0000
21
192.0000
31
0.0
0
LINE
8
ENGRAVE
10
90.0000
20
192.0000
30
0.0
11
90.0000
21
200.0000
31
0.0
0
LINE
8
ENGRAVE
10
150.0000
20
192.0000
30
0.0
11
142.0000
21
192.0000
31
0.0
0
LINE
8
ENGRAVE
10
150.0000
20
192.0000
30
0.0
11
150.0000
21
200.0000
31
0.0
0
LINE
8
ENGRAVE
10
150.0000
20
252.0000
30
0.0
11
142.0000
21
252.0000
31
0.0
0
LINE
8
ENGRAVE
10
150.0000
20
252.0000
30
0.0
11
150.0000
21
244.0000
31
0.0
0
LINE
8
ENGRAVE
10
90.0000
20
252.0000
30
0.0
11
98.0000
21
252.0000
31
0.0
0
LINE
8
ENGRAVE
10
90.0000
20
252.0000
30
0.0
11
90.0000
21
244.0000
31
0.0
0
TEXT
8
LABEL
10
92.0000
20
254.0000
30
0.0
40
4.0
1
SERVO
0
TEXT
8
LABEL
10
90.0000
20
122.0000
30
0.0
40
4.0
1
CH
0
TEXT
8
LABEL
10
26.0000
20
270.0000
30
0.0
40
4.0
1
PANEL 200x260 T2.7
0
TEXT
8
LABEL
10
168.0000
20
175.0000
30
0.0
40
4.0
1
ULTRASONIC
0
LINE
8
CUT
10
245.0000
20
25.0000
30
0.0
11
445.0000
21
25.0000
31
0.0
0
LINE
8
CUT
10
445.0000
20
25.0000
30
0.0
11
445.0000
21
225.0000
31
0.0
0
LINE
8
CUT
10
445.0000
20
225.0000
30
0.0
11
245.0000
21
225.0000
31
0.0
0
LINE
8
CUT
10
245.0000
20
225.0000
30
0.0
11
245.0000
21
25.0000
31
0.0
0
LINE
8
CUT
10
275.0000
20
93.6500
30
0.0
11
295.0000
21
93.6500
31
0.0
0
LINE
8
CUT
10
295.0000
20
93.6500
30
0.0
11
295.0000
21
96.3500
31
0.0
0
LINE
8
CUT
10
295.0000
20
96.3500
30
0.0
11
275.0000
21
96.3500
31
0.0
0
LINE
8
CUT
10
275.0000
20
96.3500
30
0.0
11
275.0000
21
93.6500
31
0.0
0
LINE
8
CUT
10
335.0000
20
93.6500
30
0.0
11
355.0000
21
93.6500
31
0.0
0
LINE
8
CUT
10
355.0000
20
93.6500
30
0.0
11
355.0000
21
96.3500
31
0.0
0
LINE
8
CUT
10
355.0000
20
96.3500
30
0.0
11
335.0000
21
96.3500
31
0.0
0
LINE
8
CUT
10
335.0000
20
96.3500
30
0.0
11
335.0000
21
93.6500
31
0.0
0
LINE
8
CUT
10
395.0000
20
93.6500
30
0.0
11
415.0000
21
93.6500
31
0.0
0
LINE
8
CUT
10
415.0000
20
93.6500
30
0.0
11
415.0000
21
96.3500
31
0.0
0
LINE
8
CUT
10
415.0000
20
96.3500
30
0.0
11
395.0000
21
96.3500
31
0.0
0
LINE
8
CUT
10
395.0000
20
96.3500
30
0.0
11
395.0000
21
93.6500
31
0.0
0
LINE
8
CUT
10
255.6500
20
109.0000
30
0.0
11
258.3500
21
109.0000
31
0.0
0
LINE
8
CUT
10
258.3500
20
109.0000
30
0.0
11
258.3500
21
121.0000
31
0.0
0
LINE
8
CUT
10
258.3500
20
121.0000
30
0.0
11
255.6500
21
121.0000
31
0.0
0
LINE
8
CUT
10
255.6500
20
121.0000
30
0.0
11
255.6500
21
109.0000
31
0.0
0
LINE
8
CUT
10
255.6500
20
147.0000
30
0.0
11
258.3500
21
147.0000
31
0.0
0
LINE
8
CUT
10
258.3500
20
147.0000
30
0.0
11
258.3500
21
159.0000
31
0.0
0
LINE
8
CUT
10
258.3500
20
159.0000
30
0.0
11
255.6500
21
159.0000
31
0.0
0
LINE
8
CUT
10
255.6500
20
159.0000
30
0.0
11
255.6500
21
147.0000
31
0.0
0
LINE
8
CUT
10
428.6500
20
109.0000
30
0.0
11
431.3500
21
109.0000
31
0.0
0
LINE
8
CUT
10
431.3500
20
109.0000
30
0.0
11
431.3500
21
121.0000
31
0.0
0
LINE
8
CUT
10
431.3500
20
121.0000
30
0.0
11
428.6500
21
121.0000
31
0.0
0
LINE
8
CUT
10
428.6500
20
121.0000
30
0.0
11
428.6500
21
109.0000
31
0.0
0
LINE
8
CUT
10
428.6500
20
147.0000
30
0.0
11
431.3500
21
147.0000
31
0.0
0
LINE
8
CUT
10
431.3500
20
147.0000
30
0.0
11
431.3500
21
159.0000
31
0.0
0
LINE
8
CUT
10
431.3500
20
159.0000
30
0.0
11
428.6500
21
159.0000
31
0.0
0
LINE
8
CUT
10
428.6500
20
159.0000
30
0.0
11
428.6500
21
147.0000
31
0.0
0
LINE
8
ENGRAVE
10
249.0000
20
29.0000
30
0.0
11
257.0000
21
29.0000
31
0.0
0
LINE
8
ENGRAVE
10
249.0000
20
29.0000
30
0.0
11
249.0000
21
37.0000
31
0.0
0
LINE
8
ENGRAVE
10
289.0000
20
29.0000
30
0.0
11
281.0000
21
29.0000
31
0.0
0
LINE
8
ENGRAVE
10
289.0000
20
29.0000
30
0.0
11
289.0000
21
37.0000
31
0.0
0
LINE
8
ENGRAVE
10
289.0000
20
89.0000
30
0.0
11
281.0000
21
89.0000
31
0.0
0
LINE
8
ENGRAVE
10
289.0000
20
89.0000
30
0.0
11
289.0000
21
81.0000
31
0.0
0
LINE
8
ENGRAVE
10
249.0000
20
89.0000
30
0.0
11
257.0000
21
89.0000
31
0.0
0
LINE
8
ENGRAVE
10
249.0000
20
89.0000
30
0.0
11
249.0000
21
81.0000
31
0.0
0
LINE
8
ENGRAVE
10
401.0000
20
29.0000
30
0.0
11
409.0000
21
29.0000
31
0.0
0
LINE
8
ENGRAVE
10
401.0000
20
29.0000
30
0.0
11
401.0000
21
37.0000
31
0.0
0
LINE
8
ENGRAVE
10
441.0000
20
29.0000
30
0.0
11
433.0000
21
29.0000
31
0.0
0
LINE
8
ENGRAVE
10
441.0000
20
29.0000
30
0.0
11
441.0000
21
37.0000
31
0.0
0
LINE
8
ENGRAVE
10
441.0000
20
89.0000
30
0.0
11
433.0000
21
89.0000
31
0.0
0
LINE
8
ENGRAVE
10
441.0000
20
89.0000
30
0.0
11
441.0000
21
81.0000
31
0.0
0
LINE
8
ENGRAVE
10
401.0000
20
89.0000
30
0.0
11
409.0000
21
89.0000
31
0.0
0
LINE
8
ENGRAVE
10
401.0000
20
89.0000
30
0.0
11
401.0000
21
81.0000
31
0.0
0
TEXT
8
LABEL
10
253.0000
20
55.0000
30
0.0
40
4.0
1
CLAMP
0
TEXT
8
LABEL
10
405.0000
20
55.0000
30
0.0
40
4.0
1
CLAMP
0
TEXT
8
LABEL
10
251.0000
20
213.0000
30
0.0
40
4.0
1
BASE 200x200 T2.7 x2  GLUE 2 LAYERS = 5.4mm
0
LINE
8
CUT
10
470.0000
20
25.0000
30
0.0
11
530.0000
21
25.0000
31
0.0
0
LINE
8
CUT
10
530.0000
20
25.0000
30
0.0
11
530.0000
21
85.0000
31
0.0
0
LINE
8
CUT
10
530.0000
20
85.0000
30
0.0
11
470.0000
21
85.0000
31
0.0
0
LINE
8
CUT
10
470.0000
20
85.0000
30
0.0
11
470.0000
21
25.0000
31
0.0
0
CIRCLE
8
CUT
10
500.0000
20
55.0000
30
0.0
40
6.0000
0
LINE
8
CUT
10
486.5000
20
63.0000
30
0.0
11
489.5000
21
63.0000
31
0.0
0
LINE
8
CUT
10
489.5000
20
63.0000
30
0.0
11
489.5000
21
73.0000
31
0.0
0
LINE
8
CUT
10
489.5000
20
73.0000
30
0.0
11
486.5000
21
73.0000
31
0.0
0
LINE
8
CUT
10
486.5000
20
73.0000
30
0.0
11
486.5000
21
63.0000
31
0.0
0
LINE
8
CUT
10
486.5000
20
37.0000
30
0.0
11
489.5000
21
37.0000
31
0.0
0
LINE
8
CUT
10
489.5000
20
37.0000
30
0.0
11
489.5000
21
47.0000
31
0.0
0
LINE
8
CUT
10
489.5000
20
47.0000
30
0.0
11
486.5000
21
47.0000
31
0.0
0
LINE
8
CUT
10
486.5000
20
47.0000
30
0.0
11
486.5000
21
37.0000
31
0.0
0
LINE
8
CUT
10
510.5000
20
63.0000
30
0.0
11
513.5000
21
63.0000
31
0.0
0
LINE
8
CUT
10
513.5000
20
63.0000
30
0.0
11
513.5000
21
73.0000
31
0.0
0
LINE
8
CUT
10
513.5000
20
73.0000
30
0.0
11
510.5000
21
73.0000
31
0.0
0
LINE
8
CUT
10
510.5000
20
73.0000
30
0.0
11
510.5000
21
63.0000
31
0.0
0
LINE
8
CUT
10
510.5000
20
37.0000
30
0.0
11
513.5000
21
37.0000
31
0.0
0
LINE
8
CUT
10
513.5000
20
37.0000
30
0.0
11
513.5000
21
47.0000
31
0.0
0
LINE
8
CUT
10
513.5000
20
47.0000
30
0.0
11
510.5000
21
47.0000
31
0.0
0
LINE
8
CUT
10
510.5000
20
47.0000
30
0.0
11
510.5000
21
37.0000
31
0.0
0
LINE
8
CUT
10
478.1500
20
39.0000
30
0.0
11
480.8500
21
39.0000
31
0.0
0
LINE
8
CUT
10
480.8500
20
39.0000
30
0.0
11
480.8500
21
67.0000
31
0.0
0
LINE
8
CUT
10
480.8500
20
67.0000
30
0.0
11
478.1500
21
67.0000
31
0.0
0
LINE
8
CUT
10
478.1500
20
67.0000
30
0.0
11
478.1500
21
39.0000
31
0.0
0
LINE
8
CUT
10
519.1500
20
39.0000
30
0.0
11
521.8500
21
39.0000
31
0.0
0
LINE
8
CUT
10
521.8500
20
39.0000
30
0.0
11
521.8500
21
67.0000
31
0.0
0
LINE
8
CUT
10
521.8500
20
67.0000
30
0.0
11
519.1500
21
67.0000
31
0.0
0
LINE
8
CUT
10
519.1500
20
67.0000
30
0.0
11
519.1500
21
39.0000
31
0.0
0
TEXT
8
LABEL
10
473.0000
20
76.0000
30
0.0
40
4.0
1
SERVO PLATE T2.7
0
TEXT
8
LABEL
10
473.0000
20
28.0000
30
0.0
40
4.0
1
ZIP TIE x2
0
LINE
8
CUT
10
473.0000
20
105.0000
30
0.0
11
491.0000
21
105.0000
31
0.0
0
LINE
8
CUT
10
491.0000
20
105.0000
30
0.0
11
491.0000
21
161.0000
31
0.0
0
LINE
8
CUT
10
491.0000
20
161.0000
30
0.0
11
473.0000
21
161.0000
31
0.0
0
LINE
8
CUT
10
473.0000
20
161.0000
30
0.0
11
473.0000
21
105.0000
31
0.0
0
LINE
8
CUT
10
473.0000
20
111.0000
30
0.0
11
470.3000
21
111.0000
31
0.0
0
LINE
8
CUT
10
470.3000
20
111.0000
30
0.0
11
470.3000
21
123.0000
31
0.0
0
LINE
8
CUT
10
470.3000
20
123.0000
30
0.0
11
473.0000
21
123.0000
31
0.0
0
LINE
8
CUT
10
473.0000
20
143.0000
30
0.0
11
470.3000
21
143.0000
31
0.0
0
LINE
8
CUT
10
470.3000
20
143.0000
30
0.0
11
470.3000
21
155.0000
31
0.0
0
LINE
8
CUT
10
470.3000
20
155.0000
30
0.0
11
473.0000
21
155.0000
31
0.0
0
LINE
8
CUT
10
491.0000
20
119.0000
30
0.0
11
493.7000
21
119.0000
31
0.0
0
LINE
8
CUT
10
493.7000
20
119.0000
30
0.0
11
493.7000
21
147.0000
31
0.0
0
LINE
8
CUT
10
493.7000
20
147.0000
30
0.0
11
491.0000
21
147.0000
31
0.0
0
TEXT
8
LABEL
10
475.0000
20
153.0000
30
0.0
40
4.0
1
RIB x2 T2.7
0
LINE
8
CUT
10
508.0000
20
105.0000
30
0.0
11
526.0000
21
105.0000
31
0.0
0
LINE
8
CUT
10
526.0000
20
105.0000
30
0.0
11
526.0000
21
161.0000
31
0.0
0
LINE
8
CUT
10
526.0000
20
161.0000
30
0.0
11
508.0000
21
161.0000
31
0.0
0
LINE
8
CUT
10
508.0000
20
161.0000
30
0.0
11
508.0000
21
105.0000
31
0.0
0
LINE
8
CUT
10
508.0000
20
111.0000
30
0.0
11
505.3000
21
111.0000
31
0.0
0
LINE
8
CUT
10
505.3000
20
111.0000
30
0.0
11
505.3000
21
123.0000
31
0.0
0
LINE
8
CUT
10
505.3000
20
123.0000
30
0.0
11
508.0000
21
123.0000
31
0.0
0
LINE
8
CUT
10
508.0000
20
143.0000
30
0.0
11
505.3000
21
143.0000
31
0.0
0
LINE
8
CUT
10
505.3000
20
143.0000
30
0.0
11
505.3000
21
155.0000
31
0.0
0
LINE
8
CUT
10
505.3000
20
155.0000
30
0.0
11
508.0000
21
155.0000
31
0.0
0
LINE
8
CUT
10
526.0000
20
119.0000
30
0.0
11
528.7000
21
119.0000
31
0.0
0
LINE
8
CUT
10
528.7000
20
119.0000
30
0.0
11
528.7000
21
147.0000
31
0.0
0
LINE
8
CUT
10
528.7000
20
147.0000
30
0.0
11
526.0000
21
147.0000
31
0.0
0
TEXT
8
LABEL
10
510.0000
20
153.0000
30
0.0
40
4.0
1
RIB x2 T2.7
0
LINE
8
CUT
10
470.0000
20
185.0000
30
0.0
11
586.0000
21
185.0000
31
0.0
0
LINE
8
CUT
10
586.0000
20
185.0000
30
0.0
11
586.0000
21
205.0000
31
0.0
0
LINE
8
CUT
10
586.0000
20
205.0000
30
0.0
11
470.0000
21
205.0000
31
0.0
0
LINE
8
CUT
10
470.0000
20
205.0000
30
0.0
11
470.0000
21
185.0000
31
0.0
0
LINE
8
CUT
10
478.0000
20
185.0000
30
0.0
11
478.0000
21
182.3000
31
0.0
0
LINE
8
CUT
10
478.0000
20
182.3000
30
0.0
11
490.0000
21
182.3000
31
0.0
0
LINE
8
CUT
10
490.0000
20
182.3000
30
0.0
11
490.0000
21
185.0000
31
0.0
0
LINE
8
CUT
10
566.0000
20
185.0000
30
0.0
11
566.0000
21
182.3000
31
0.0
0
LINE
8
CUT
10
566.0000
20
182.3000
30
0.0
11
578.0000
21
182.3000
31
0.0
0
LINE
8
CUT
10
578.0000
20
182.3000
30
0.0
11
578.0000
21
185.0000
31
0.0
0
TEXT
8
LABEL
10
473.0000
20
192.0000
30
0.0
40
4.0
1
LED HOOD T2.7
0
LINE
8
CUT
10
470.0000
20
225.0000
30
0.0
11
560.0000
21
225.0000
31
0.0
0
LINE
8
CUT
10
560.0000
20
225.0000
30
0.0
11
560.0000
21
233.0000
31
0.0
0
LINE
8
CUT
10
560.0000
20
233.0000
30
0.0
11
470.0000
21
233.0000
31
0.0
0
LINE
8
CUT
10
470.0000
20
233.0000
30
0.0
11
470.0000
21
225.0000
31
0.0
0
TEXT
8
LABEL
10
472.0000
20
227.0000
30
0.0
40
4.0
1
STOPPER
0
TEXT
8
LABEL
10
6.0000
20
290.0000
30
0.0
40
4.0
1
SHEET A  600x300  MDF T2.7
0
ENDSEC
0
EOF
