0
SECTION
2
ENTITIES
0
LINE
8
SHEET
10
0.0000
20
0.0000
30
0.0
11
200.0000
21
0.0000
31
0.0
0
LINE
8
SHEET
10
200.0000
20
0.0000
30
0.0
11
200.0000
21
200.0000
31
0.0
0
LINE
8
SHEET
10
200.0000
20
200.0000
30
0.0
11
0.0000
21
200.0000
31
0.0
0
LINE
8
SHEET
10
0.0000
20
200.0000
30
0.0
11
0.0000
21
0.0000
31
0.0
0
LINE
8
CUT
10
15.0000
20
15.0000
30
0.0
11
105.0000
21
15.0000
31
0.0
0
LINE
8
CUT
10
105.0000
20
15.0000
30
0.0
11
105.0000
21
100.0000
31
0.0
0
LINE
8
CUT
10
105.0000
20
100.0000
30
0.0
11
15.0000
21
100.0000
31
0.0
0
LINE
8
CUT
10
15.0000
20
100.0000
30
0.0
11
15.0000
21
15.0000
31
0.0
0
CIRCLE
8
CUT
10
60.0000
20
93.0000
30
0.0
40
1.5000
0
LINE
8
ENGRAVE
10
25.0000
20
21.0000
30
0.0
11
95.0000
21
21.0000
31
0.0
0
LINE
8
ENGRAVE
10
95.0000
20
21.0000
30
0.0
11
95.0000
21
35.0000
31
0.0
0
LINE
8
ENGRAVE
10
95.0000
20
35.0000
30
0.0
11
25.0000
21
35.0000
31
0.0
0
LINE
8
ENGRAVE
10
25.0000
20
35.0000
30
0.0
11
25.0000
21
21.0000
31
0.0
0
TEXT
8
ENGRAVE
10
19.0000
20
80.0000
30
0.0
40
4.0
1
FLAP 90x85 T2
0
LINE
8
CUT
10
15.0000
20
110.0000
30
0.0
11
105.0000
21
110.0000
31
0.0
0
LINE
8
CUT
10
105.0000
20
110.0000
30
0.0
11
105.0000
21
195.0000
31
0.0
0
LINE
8
CUT
10
105.0000
20
195.0000
30
0.0
11
15.0000
21
195.0000
31
0.0
0
LINE
8
CUT
10
15.0000
20
195.0000
30
0.0
11
15.0000
21
110.0000
31
0.0
0
CIRCLE
8
CUT
10
60.0000
20
188.0000
30
0.0
40
1.5000
0
LINE
8
ENGRAVE
10
25.0000
20
116.0000
30
0.0
11
95.0000
21
116.0000
31
0.0
0
LINE
8
ENGRAVE
10
95.0000
20
116.0000
30
0.0
11
95.0000
21
130.0000
31
0.0
0
LINE
8
ENGRAVE
10
95.0000
20
130.0000
30
0.0
11
25.0000
21
130.0000
31
0.0
0
LINE
8
ENGRAVE
10
25.0000
20
130.0000
30
0.0
11
25.0000
21
116.0000
31
0.0
0
TEXT
8
ENGRAVE
10
19.0000
20
175.0000
30
0.0
40
4.0
1
FLAP 90x85 T2
0
TEXT
8
ENGRAVE
10
6.0000
20
190.0000
30
0.0
40
4.0
1
SHEET C  200x200  MDF T2   FLAP x2
0
ENDSEC
0
EOF
